<svg width="100%" height="100%" viewBox="0 0 286 48" fill="none" xmlns="http://www.w3.org/2000/svg">
<path d="M22.747 3.11597C18.3958 3.11597 14.1424 4.40625 10.5245 6.82364C6.90659 9.24103 4.0868 12.677 2.42167 16.6969C0.756541 20.7169 0.320868 25.1404 1.16974 29.408C2.01862 33.6755 4.11391 37.5956 7.19067 40.6723C10.2674 43.7491 14.1874 45.8444 18.455 46.6932C22.7226 47.5421 27.1461 47.1064 31.166 45.4413C35.186 43.7762 38.622 40.9564 41.0393 37.3385C43.4567 33.7206 44.747 29.4672 44.747 25.116C44.747 22.2269 44.178 19.3661 43.0724 16.6969C41.9668 14.0278 40.3462 11.6025 38.3034 9.55962C36.2605 7.51674 33.8352 5.89623 31.166 4.79062C28.4969 3.68502 25.6361 3.11597 22.747 3.11597ZM22.747 7.51597C26.2192 7.51742 29.6134 8.54587 32.5024 10.4719C35.3914 12.3979 37.6462 15.1354 38.983 18.34C33.6762 16.9929 28.2221 16.313 22.747 16.316C17.2549 16.3167 11.7849 17.0116 6.46702 18.384C7.79991 15.1643 10.0586 12.4127 12.9568 10.478C15.855 8.54321 19.2623 7.51233 22.747 7.51597ZM5.14702 26.59L7.58902 26.304C8.93984 26.1456 10.3089 26.275 11.6061 26.6836C12.9033 27.0922 14.0994 27.7709 15.1156 28.6748C16.1318 29.5788 16.9451 30.6876 17.502 31.9284C18.059 33.1692 18.347 34.5139 18.347 35.874V42.144C14.8039 41.2434 11.6291 39.2618 9.26365 36.4745C6.89816 33.6872 5.45934 30.2324 5.14702 26.59ZM27.147 42.144V35.874C27.1481 34.5201 27.4345 33.1817 27.9875 31.946C28.5405 30.7102 29.3477 29.6049 30.3565 28.7019C31.3653 27.799 32.553 27.1188 33.8422 26.7056C35.1315 26.2925 36.4933 26.1556 37.839 26.304L40.281 26.59C39.973 30.2238 38.5438 33.6722 36.191 36.4586C33.8382 39.2449 30.6779 41.2316 27.147 42.144Z" fill="white"/>
<path d="M84.5505 46.884C80.1558 46.884 76.3585 45.924 73.1585 44.004C69.9585 42.0413 67.4838 39.332 65.7345 35.876C64.0278 32.3773 63.1745 28.324 63.1745 23.716C63.1745 19.108 64.0278 15.076 65.7345 11.62C67.4838 8.1213 69.9585 5.41197 73.1585 3.49197C76.3585 1.52931 80.1558 0.547974 84.5505 0.547974C89.7132 0.547974 93.8945 1.76397 97.0945 4.19597C100.295 6.62797 102.343 10.0626 103.239 14.5H97.2865C96.6038 11.7266 95.2172 9.50797 93.1265 7.84397C91.0358 6.17997 88.1772 5.34797 84.5505 5.34797C81.3505 5.34797 78.5558 6.09464 76.1665 7.58797C73.7772 9.03864 71.9212 11.1506 70.5985 13.924C69.3185 16.6546 68.6785 19.9186 68.6785 23.716C68.6785 27.5133 69.3185 30.7986 70.5985 33.572C71.9212 36.3026 73.7772 38.4146 76.1665 39.908C78.5558 41.3586 81.3505 42.084 84.5505 42.084C88.1772 42.084 91.0572 41.2733 93.1905 39.652C95.3665 37.988 96.7958 35.812 97.4785 33.124H103.239C102.343 37.4333 100.295 40.804 97.0945 43.236C93.8945 45.668 89.7132 46.884 84.5505 46.884Z" fill="white"/>
<path d="M118.809 46.884C116.292 46.884 114.18 46.436 112.473 45.54C110.766 44.644 109.486 43.4493 108.633 41.956C107.822 40.4626 107.417 38.8413 107.417 37.092C107.417 34.916 107.972 33.0813 109.081 31.588C110.233 30.0946 111.833 28.964 113.881 28.196C115.972 27.3853 118.425 26.98 121.241 26.98H129.817C129.817 24.8893 129.497 23.1613 128.857 21.796C128.217 20.4306 127.3 19.428 126.105 18.788C124.91 18.1053 123.481 17.764 121.817 17.764C119.726 17.764 117.913 18.2973 116.377 19.364C114.841 20.4306 113.902 22.0733 113.561 24.292H108.057C108.313 21.988 109.06 20.0466 110.297 18.468C111.577 16.8893 113.198 15.6946 115.161 14.884C117.166 14.0306 119.385 13.604 121.817 13.604C124.846 13.604 127.342 14.1586 129.305 15.268C131.31 16.3346 132.782 17.8493 133.721 19.812C134.702 21.732 135.193 23.9933 135.193 26.596V46.116H130.713L130.201 40.676H129.945C129.348 41.7 128.644 42.596 127.833 43.364C127.065 44.132 126.212 44.772 125.273 45.284C124.334 45.796 123.31 46.18 122.201 46.436C121.134 46.7346 120.004 46.884 118.809 46.884ZM119.769 42.34C121.39 42.34 122.82 42.0413 124.057 41.444C125.294 40.804 126.34 39.9506 127.193 38.884C128.046 37.8173 128.686 36.6226 129.113 35.3C129.582 33.9346 129.817 32.548 129.817 31.14H121.689C119.598 31.14 117.913 31.396 116.633 31.908C115.353 32.3773 114.436 33.0386 113.881 33.892C113.326 34.7453 113.049 35.7266 113.049 36.836C113.049 37.9453 113.305 38.9266 113.817 39.78C114.372 40.5906 115.14 41.2306 116.121 41.7C117.145 42.1266 118.361 42.34 119.769 42.34Z" fill="white"/>
<path d="M139.995 46.116V14.372H144.731L145.243 21.284H145.499C146.565 18.98 147.611 17.2946 148.635 16.228C149.659 15.1186 150.832 14.4146 152.155 14.116C153.52 13.7746 155.205 13.604 157.211 13.604V19.236H155.803C154.096 19.236 152.581 19.4706 151.259 19.94C149.936 20.3666 148.848 21.0066 147.995 21.86C147.141 22.7133 146.48 23.8013 146.011 25.124C145.584 26.404 145.371 27.9186 145.371 29.668V46.116H139.995Z" fill="white"/>
<path d="M181.176 46.884C176.781 46.884 172.984 45.924 169.784 44.004C166.584 42.0413 164.109 39.332 162.36 35.876C160.653 32.3773 159.8 28.324 159.8 23.716C159.8 19.108 160.653 15.076 162.36 11.62C164.109 8.1213 166.584 5.41197 169.784 3.49197C172.984 1.52931 176.781 0.547974 181.176 0.547974C186.338 0.547974 190.52 1.76397 193.72 4.19597C196.92 6.62797 198.968 10.0626 199.864 14.5H193.912C193.229 11.7266 191.842 9.50797 189.752 7.84397C187.661 6.17997 184.802 5.34797 181.176 5.34797C177.976 5.34797 175.181 6.09464 172.792 7.58797C170.402 9.03864 168.546 11.1506 167.224 13.924C165.944 16.6546 165.304 19.9186 165.304 23.716C165.304 27.5133 165.944 30.7986 167.224 33.572C168.546 36.3026 170.402 38.4146 172.792 39.908C175.181 41.3586 177.976 42.084 181.176 42.084C184.802 42.084 187.682 41.2733 189.816 39.652C191.992 37.988 193.421 35.812 194.104 33.124H199.864C198.968 37.4333 196.92 40.804 193.72 43.236C190.52 45.668 186.338 46.884 181.176 46.884Z" fill="white"/>
<path d="M215.434 46.884C212.917 46.884 210.805 46.436 209.098 45.54C207.391 44.644 206.111 43.4493 205.258 41.956C204.447 40.4626 204.042 38.8413 204.042 37.092C204.042 34.916 204.597 33.0813 205.706 31.588C206.858 30.0946 208.458 28.964 210.506 28.196C212.597 27.3853 215.05 26.98 217.866 26.98H226.442C226.442 24.8893 226.122 23.1613 225.482 21.796C224.842 20.4306 223.925 19.428 222.73 18.788C221.535 18.1053 220.106 17.764 218.442 17.764C216.351 17.764 214.538 18.2973 213.002 19.364C211.466 20.4306 210.527 22.0733 210.186 24.292H204.682C204.938 21.988 205.685 20.0466 206.922 18.468C208.202 16.8893 209.823 15.6946 211.786 14.884C213.791 14.0306 216.01 13.604 218.442 13.604C221.471 13.604 223.967 14.1586 225.93 15.268C227.935 16.3346 229.407 17.8493 230.346 19.812C231.327 21.732 231.818 23.9933 231.818 26.596V46.116H227.338L226.826 40.676H226.57C225.973 41.7 225.269 42.596 224.458 43.364C223.69 44.132 222.837 44.772 221.898 45.284C220.959 45.796 219.935 46.18 218.826 46.436C217.759 46.7346 216.629 46.884 215.434 46.884ZM216.394 42.34C218.015 42.34 219.445 42.0413 220.682 41.444C221.919 40.804 222.965 39.9506 223.818 38.884C224.671 37.8173 225.311 36.6226 225.738 35.3C226.207 33.9346 226.442 32.548 226.442 31.14H218.314C216.223 31.14 214.538 31.396 213.258 31.908C211.978 32.3773 211.061 33.0386 210.506 33.892C209.951 34.7453 209.674 35.7266 209.674 36.836C209.674 37.9453 209.93 38.9266 210.442 39.78C210.997 40.5906 211.765 41.2306 212.746 41.7C213.77 42.1266 214.986 42.34 216.394 42.34Z" fill="white"/>
<path d="M236.62 46.116V14.372H241.356L241.868 21.284H242.124C243.19 18.98 244.236 17.2946 245.26 16.228C246.284 15.1186 247.457 14.4146 248.78 14.116C250.145 13.7746 251.83 13.604 253.836 13.604V19.236H252.428C250.721 19.236 249.206 19.4706 247.884 19.94C246.561 20.3666 245.473 21.0066 244.62 21.86C243.766 22.7133 243.105 23.8013 242.636 25.124C242.209 26.404 241.996 27.9186 241.996 29.668V46.116H236.62Z" fill="white"/>
<path d="M270.213 46.884C267.184 46.884 264.496 46.2013 262.149 44.836C259.802 43.428 257.946 41.4866 256.581 39.012C255.258 36.4946 254.597 33.572 254.597 30.244C254.597 26.8733 255.258 23.9506 256.581 21.476C257.904 19.0013 259.738 17.0813 262.085 15.716C264.474 14.308 267.226 13.604 270.341 13.604C273.456 13.604 276.122 14.308 278.341 15.716C280.56 17.0813 282.266 18.8946 283.461 21.156C284.656 23.3746 285.253 25.8066 285.253 28.452C285.253 28.8786 285.253 29.348 285.253 29.86C285.253 30.3293 285.232 30.8626 285.189 31.46H258.629V27.3H279.941C279.813 24.2706 278.832 21.924 276.997 20.26C275.205 18.596 272.944 17.764 270.213 17.764C268.378 17.764 266.672 18.1693 265.093 18.98C263.514 19.7906 262.234 21.0066 261.253 22.628C260.314 24.2493 259.845 26.2973 259.845 28.772V30.564C259.845 33.2093 260.336 35.4066 261.317 37.156C262.298 38.9053 263.578 40.228 265.157 41.124C266.778 41.9773 268.464 42.404 270.213 42.404C272.432 42.404 274.288 41.892 275.781 40.868C277.274 39.844 278.362 38.436 279.045 36.644H284.357C283.802 38.6066 282.885 40.356 281.605 41.892C280.325 43.428 278.725 44.644 276.805 45.54C274.928 46.436 272.73 46.884 270.213 46.884Z" fill="white"/>
</svg>
