<svg width="100%" height="100%" viewBox="0 0 224 47" fill="none" xmlns="http://www.w3.org/2000/svg">
<path d="M22.3368 46.452C17.9421 46.452 14.1448 45.492 10.9448 43.572C7.74476 41.6093 5.27009 38.9 3.52075 35.444C1.81409 31.9453 0.960754 27.892 0.960754 23.284C0.960754 18.676 1.81409 14.644 3.52075 11.188C5.27009 7.6893 7.74476 4.97997 10.9448 3.05997C14.1448 1.0973 17.9421 0.115967 22.3368 0.115967C27.4994 0.115967 31.6808 1.33197 34.8808 3.76397C38.0808 6.19596 40.1288 9.63063 41.0248 14.068H35.0728C34.3901 11.2946 33.0034 9.07597 30.9128 7.41196C28.8221 5.74797 25.9634 4.91597 22.3368 4.91597C19.1368 4.91597 16.3421 5.66263 13.9528 7.15596C11.5634 8.60663 9.70742 10.7186 8.38476 13.492C7.10476 16.2226 6.46476 19.4866 6.46476 23.284C6.46476 27.0813 7.10476 30.3666 8.38476 33.14C9.70742 35.8706 11.5634 37.9826 13.9528 39.476C16.3421 40.9266 19.1368 41.652 22.3368 41.652C25.9634 41.652 28.8434 40.8413 30.9768 39.22C33.1528 37.556 34.5821 35.38 35.2648 32.692H41.0248C40.1288 37.0013 38.0808 40.372 34.8808 42.804C31.6808 45.236 27.4994 46.452 22.3368 46.452Z" fill="white"/>
<path d="M56.5953 46.452C54.0779 46.452 51.9659 46.004 50.2593 45.108C48.5526 44.212 47.2726 43.0173 46.4193 41.524C45.6086 40.0306 45.2033 38.4093 45.2033 36.66C45.2033 34.484 45.7579 32.6493 46.8673 31.156C48.0193 29.6626 49.6193 28.532 51.6673 27.764C53.7579 26.9533 56.2113 26.548 59.0273 26.548H67.6033C67.6033 24.4573 67.2833 22.7293 66.6433 21.364C66.0033 19.9986 65.0859 18.996 63.8913 18.356C62.6966 17.6733 61.2673 17.332 59.6033 17.332C57.5126 17.332 55.6993 17.8653 54.1633 18.932C52.6273 19.9986 51.6886 21.6413 51.3473 23.86H45.8433C46.0993 21.556 46.8459 19.6146 48.0833 18.036C49.3633 16.4573 50.9846 15.2626 52.9473 14.452C54.9526 13.5986 57.1713 13.172 59.6033 13.172C62.6326 13.172 65.1286 13.7266 67.0913 14.836C69.0966 15.9026 70.5686 17.4173 71.5073 19.38C72.4886 21.3 72.9793 23.5613 72.9793 26.164V45.684H68.4993L67.9873 40.244H67.7313C67.1339 41.268 66.4299 42.164 65.6193 42.932C64.8513 43.7 63.9979 44.34 63.0593 44.852C62.1206 45.364 61.0966 45.748 59.9873 46.004C58.9206 46.3026 57.7899 46.452 56.5953 46.452ZM57.5553 41.908C59.1766 41.908 60.6059 41.6093 61.8433 41.012C63.0806 40.372 64.1259 39.5186 64.9793 38.452C65.8326 37.3853 66.4726 36.1906 66.8993 34.868C67.3686 33.5026 67.6033 32.116 67.6033 30.708H59.4753C57.3846 30.708 55.6993 30.964 54.4193 31.476C53.1393 31.9453 52.2219 32.6066 51.6673 33.46C51.1126 34.3133 50.8353 35.2946 50.8353 36.404C50.8353 37.5133 51.0913 38.4946 51.6033 39.348C52.1579 40.1586 52.9259 40.7986 53.9073 41.268C54.9313 41.6946 56.1473 41.908 57.5553 41.908Z" fill="white"/>
<path d="M77.7808 45.684V13.94H82.5168L83.0288 20.852H83.2848C84.3514 18.548 85.3968 16.8626 86.4208 15.796C87.4448 14.6866 88.6181 13.9826 89.9408 13.684C91.3061 13.3426 92.9914 13.172 94.9968 13.172V18.804H93.5888C91.8821 18.804 90.3674 19.0386 89.0448 19.508C87.7221 19.9346 86.6341 20.5746 85.7808 21.428C84.9274 22.2813 84.2661 23.3693 83.7968 24.692C83.3701 25.972 83.1568 27.4866 83.1568 29.236V45.684H77.7808Z" fill="white"/>
<path d="M118.962 46.452C114.567 46.452 110.77 45.492 107.57 43.572C104.37 41.6093 101.895 38.9 100.146 35.444C98.4391 31.9453 97.5858 27.892 97.5858 23.284C97.5858 18.676 98.4391 14.644 100.146 11.188C101.895 7.6893 104.37 4.97997 107.57 3.05997C110.77 1.0973 114.567 0.115967 118.962 0.115967C124.124 0.115967 128.306 1.33197 131.506 3.76397C134.706 6.19596 136.754 9.63063 137.65 14.068H131.698C131.015 11.2946 129.628 9.07597 127.538 7.41196C125.447 5.74797 122.588 4.91597 118.962 4.91597C115.762 4.91597 112.967 5.66263 110.578 7.15596C108.188 8.60663 106.332 10.7186 105.01 13.492C103.73 16.2226 103.09 19.4866 103.09 23.284C103.09 27.0813 103.73 30.3666 105.01 33.14C106.332 35.8706 108.188 37.9826 110.578 39.476C112.967 40.9266 115.762 41.652 118.962 41.652C122.588 41.652 125.468 40.8413 127.602 39.22C129.778 37.556 131.207 35.38 131.89 32.692H137.65C136.754 37.0013 134.706 40.372 131.506 42.804C128.306 45.236 124.124 46.452 118.962 46.452Z" fill="white"/>
<path d="M153.22 46.452C150.703 46.452 148.591 46.004 146.884 45.108C145.178 44.212 143.898 43.0173 143.044 41.524C142.234 40.0306 141.828 38.4093 141.828 36.66C141.828 34.484 142.383 32.6493 143.492 31.156C144.644 29.6626 146.244 28.532 148.292 27.764C150.383 26.9533 152.836 26.548 155.652 26.548H164.228C164.228 24.4573 163.908 22.7293 163.268 21.364C162.628 19.9986 161.711 18.996 160.516 18.356C159.322 17.6733 157.892 17.332 156.228 17.332C154.138 17.332 152.324 17.8653 150.788 18.932C149.252 19.9986 148.314 21.6413 147.972 23.86H142.468C142.724 21.556 143.471 19.6146 144.708 18.036C145.988 16.4573 147.61 15.2626 149.572 14.452C151.578 13.5986 153.796 13.172 156.228 13.172C159.258 13.172 161.754 13.7266 163.716 14.836C165.722 15.9026 167.194 17.4173 168.132 19.38C169.114 21.3 169.604 23.5613 169.604 26.164V45.684H165.124L164.612 40.244H164.356C163.759 41.268 163.055 42.164 162.244 42.932C161.476 43.7 160.623 44.34 159.684 44.852C158.746 45.364 157.722 45.748 156.612 46.004C155.546 46.3026 154.415 46.452 153.22 46.452ZM154.18 41.908C155.802 41.908 157.231 41.6093 158.468 41.012C159.706 40.372 160.751 39.5186 161.604 38.452C162.458 37.3853 163.098 36.1906 163.524 34.868C163.994 33.5026 164.228 32.116 164.228 30.708H156.1C154.01 30.708 152.324 30.964 151.044 31.476C149.764 31.9453 148.847 32.6066 148.292 33.46C147.738 34.3133 147.46 35.2946 147.46 36.404C147.46 37.5133 147.716 38.4946 148.228 39.348C148.783 40.1586 149.551 40.7986 150.532 41.268C151.556 41.6946 152.772 41.908 154.18 41.908Z" fill="white"/>
<path d="M174.406 45.684V13.94H179.142L179.654 20.852H179.91C180.976 18.548 182.022 16.8626 183.046 15.796C184.07 14.6866 185.243 13.9826 186.566 13.684C187.931 13.3426 189.616 13.172 191.622 13.172V18.804H190.214C188.507 18.804 186.992 19.0386 185.67 19.508C184.347 19.9346 183.259 20.5746 182.406 21.428C181.552 22.2813 180.891 23.3693 180.422 24.692C179.995 25.972 179.782 27.4866 179.782 29.236V45.684H174.406Z" fill="white"/>
<path d="M207.999 46.452C204.97 46.452 202.282 45.7693 199.935 44.404C197.589 42.996 195.733 41.0546 194.367 38.58C193.045 36.0626 192.383 33.14 192.383 29.812C192.383 26.4413 193.045 23.5186 194.367 21.044C195.69 18.5693 197.525 16.6493 199.871 15.284C202.261 13.876 205.013 13.172 208.127 13.172C211.242 13.172 213.909 13.876 216.127 15.284C218.346 16.6493 220.053 18.4626 221.247 20.724C222.442 22.9426 223.039 25.3746 223.039 28.02C223.039 28.4466 223.039 28.916 223.039 29.428C223.039 29.8973 223.018 30.4306 222.975 31.028H196.415V26.868H217.727C217.599 23.8386 216.618 21.492 214.783 19.828C212.991 18.164 210.73 17.332 207.999 17.332C206.165 17.332 204.458 17.7373 202.879 18.548C201.301 19.3586 200.021 20.5746 199.039 22.196C198.101 23.8173 197.631 25.8653 197.631 28.34V30.132C197.631 32.7773 198.122 34.9746 199.103 36.724C200.085 38.4733 201.365 39.796 202.943 40.692C204.565 41.5453 206.25 41.972 207.999 41.972C210.218 41.972 212.074 41.46 213.567 40.436C215.061 39.412 216.149 38.004 216.831 36.212H222.143C221.589 38.1746 220.671 39.924 219.391 41.46C218.111 42.996 216.511 44.212 214.591 45.108C212.714 46.004 210.517 46.452 207.999 46.452Z" fill="white"/>
</svg>
