<svg width="100" height="101" viewBox="0 0 100 101" fill="none" xmlns="http://www.w3.org/2000/svg">
<path d="M50 0.452026C40.111 0.452026 30.444 3.38447 22.2215 8.87854C13.9991 14.3726 7.59043 22.1815 3.80605 31.3178C0.0216644 40.4541 -0.968502 50.5075 0.960758 60.2065C2.89002 69.9056 7.65206 78.8147 14.6447 85.8073C21.6373 92.8 30.5465 97.562 40.2455 99.4913C49.9445 101.421 59.9979 100.43 69.1342 96.646C78.2705 92.8616 86.0794 86.453 91.5735 78.2305C97.0676 70.0081 100 60.3411 100 50.452C100 43.8859 98.7067 37.3841 96.194 31.3178C93.6813 25.2516 89.9983 19.7396 85.3553 15.0967C80.7124 10.4538 75.2005 6.77078 69.1342 4.25805C63.0679 1.74531 56.5661 0.452026 50 0.452026ZM50 10.452C57.8913 10.4553 65.6054 12.7927 72.1714 17.17C78.7373 21.5473 83.8618 27.769 86.9 35.052C74.8391 31.9905 62.4434 30.4453 50 30.452C37.5179 30.4537 25.0861 32.0329 13 35.152C16.0293 27.8345 21.1626 21.581 27.7495 17.1838C34.3364 12.7866 42.0803 10.4438 50 10.452ZM10 53.802L15.55 53.152C18.6201 52.7921 21.7315 53.0861 24.6798 54.0148C27.628 54.9435 30.3463 56.4858 32.6558 58.5403C34.9653 60.5948 36.8138 63.1149 38.0796 65.9349C39.3454 68.7549 39.9999 71.8109 40 74.902V89.152C31.9475 87.1052 24.7321 82.6017 19.356 76.2668C13.9799 69.932 10.7098 62.0802 10 53.802ZM60 89.152V74.902C60.0026 71.8251 60.6534 68.7833 61.9103 65.9747C63.1671 63.1662 65.0016 60.654 67.2943 58.602C69.5869 56.5499 72.2863 55.0039 75.2164 54.0649C78.1465 53.1259 81.2416 52.8148 84.3 53.152L89.85 53.802C89.15 62.0607 85.9019 69.8981 80.5546 76.2307C75.2072 82.5633 68.0248 87.0784 60 89.152Z" fill="white"/>
</svg>
