<svg width="800" height="800" viewBox="0 0 800 800" fill="none" xmlns="http://www.w3.org/2000/svg">
<path d="M482.765 178.929C519.755 202.122 545.693 241.368 550.416 286.924C565.501 293.972 582.244 298.026 599.995 298.026C664.8 298.026 717.324 245.501 717.324 180.706C717.324 115.902 664.8 63.377 599.995 63.377C535.809 63.3969 483.744 114.983 482.765 178.929ZM405.9 419.159C470.705 419.159 523.23 366.624 523.23 301.829C523.23 237.035 470.695 184.51 405.9 184.51C341.106 184.51 288.551 237.045 288.551 301.839C288.551 366.634 341.106 419.159 405.9 419.159ZM455.67 427.156H356.111C273.276 427.156 205.885 494.556 205.885 577.392V699.144L206.195 701.051L214.581 703.676C293.633 728.376 362.311 736.613 418.839 736.613C529.25 736.613 593.246 705.134 597.19 703.127L605.027 699.164H605.865V577.392C605.895 494.556 538.505 427.156 455.67 427.156ZM649.784 306.033H550.995C549.926 345.558 533.054 381.151 506.367 406.749C579.998 428.643 633.87 496.922 633.87 577.571V615.09C731.411 611.516 787.62 583.871 791.324 582.014L799.161 578.041H800V456.249C800 373.423 732.609 306.033 649.784 306.033ZM200.025 298.046C222.978 298.046 244.333 291.346 262.424 279.935C268.174 242.426 288.282 209.649 317.005 187.326C317.125 185.129 317.334 182.953 317.334 180.736C317.334 115.932 264.8 63.4069 200.025 63.4069C135.21 63.4069 82.6956 115.932 82.6956 180.736C82.6956 245.511 135.21 298.046 200.025 298.046ZM305.394 406.749C278.837 381.28 262.024 345.878 260.796 306.592C257.132 306.322 253.508 306.033 249.774 306.033H150.226C67.3905 306.033 0 373.423 0 456.249V578.021L0.309497 579.898L8.69587 582.543C72.1128 602.341 128.711 611.466 177.871 614.342V577.571C177.891 496.922 231.743 428.663 305.394 406.749Z" fill="white"/>
</svg>
